<?xml version="1.0" encoding="utf-8"?>
<!-- Generator: Adobe Illustrator 22.0.0, SVG Export Plug-In . SVG Version: 6.00 Build 0)  -->
<svg version="1.1" id="Capa_1" xmlns="http://www.w3.org/2000/svg" xmlns:xlink="http://www.w3.org/1999/xlink" x="0px" y="0px"
	 viewBox="0 0 500 500" style="enable-background:new 0 0 500 500;" xml:space="preserve">
<style type="text/css">
	.st0{fill:#333333;}
	.st1{fill:#FFA64D;}
	.st2{fill:none;stroke:#FF2215;stroke-width:10;stroke-miterlimit:10;}
	.st3{fill:#FF2215;}
</style>
<g>
	<path class="st0" d="M-748-76.3c-3-20.3-9.7-43.6-24.6-59.6c-11.8-12.7-27.1-19.2-45.4-19.2c-24.5,0-39.8,15.4-49.3,32.6
		c-5-0.3-9.9-0.6-14.7-0.6h-64c-4.8,0-9.7,0.2-14.7,0.6c-9.5-17.2-24.8-32.6-49.3-32.6c-18.3,0-33.6,6.4-45.4,19.2
		c-14.9,16-21.6,39.3-24.6,59.6c-52.1,41.3-82,102.7-82,169.3c0,63.8,27.8,121.2,72,160.8V317c0,13.2,10.8,24,24,24h96
		c13.2,0,24-10.8,24-24v-8h64v8c0,13.2,10.8,24,24,24h72v-16h-72c-4.4,0-8-3.6-8-8v-8.7c0.5,0,1-0.1,1.5-0.1l-1.3-16
		c-5.9,0.5-11.2,0.7-16.2,0.7h-64c-110.3,0-200-89.7-200-200c0-56.3,23.1-108.6,63.9-146.4c-0.4,10.7,0.1,18.1,0.1,19l16-1.1
		c0-0.6-4-61.2,22.3-89.4c8.8-9.4,19.8-14,33.7-14c40.2,0,48,64.2,48,64.9l15.9-1.8c-0.2-1.3-1.9-15.2-7.6-30.9
		c2.6-0.1,5.1-0.2,7.7-0.2h64c2.5,0,5.1,0.1,7.7,0.2c-5.8,15.7-7.5,29.6-7.6,30.9l15.9,1.8c0.1-0.6,7.7-64.9,48-64.9
		c13.9,0,24.9,4.6,33.7,14c26.3,28.2,22.4,88.8,22.3,89.4l16,1.1c0.1-0.9,0.5-8.3,0.1-19C-705.1-15.6-682,36.7-682,93
		c0,24.5-4.4,48.6-13.2,71.4l14.9,5.7c9.4-24.7,14.2-50.7,14.2-77.2C-666,26.5-695.9-35-748-76.3z M-1074,266.9
		c31.8,23.5,70.3,38.4,112,41.5v8.7c0,4.4-3.6,8-8,8h-96c-4.4,0-8-3.6-8-8V266.9z"/>
	<path class="st0" d="M-762,341h-24v-16h24c2.4,0,4.7-1.2,6.3-3.2l12.6,9.8C-747.7,337.6-754.6,341-762,341z"/>
	<path class="st0" d="M-861,143.2c-4.2-1.5-8.6-2.2-13-2.2h-16v-16h16c6.2,0,12.3,1,18.2,3.1L-861,143.2z"/>
	<path class="st0" d="M-842-3c-17.6,0-32,14.4-32,32s14.4,32,32,32s32-14.4,32-32S-824.4-3-842-3z M-842,45c-8.8,0-16-7.2-16-16
		s7.2-16,16-16s16,7.2,16,16S-833.2,45-842,45z"/>
	<path class="st0" d="M-906,125h-48c-30.9,0-56,25.1-56,56s25.1,56,56,56h56.4v-16H-954c-22.1,0-40-17.9-40-40s17.9-40,40-40h48V125
		z"/>
</g>
<circle class="st1" cx="-786" cy="221" r="120"/>
<g>
	<path class="st0" d="M-978,181c0,13.2,10.8,24,24,24s24-10.8,24-24s-10.8-24-24-24S-978,167.8-978,181z M-946,181c0,4.4-3.6,8-8,8
		s-8-3.6-8-8s3.6-8,8-8S-946,176.6-946,181z"/>
	<path class="st0" d="M-986-3c-17.6,0-32,14.4-32,32s14.4,32,32,32s32-14.4,32-32S-968.4-3-986-3z M-986,45c-8.8,0-16-7.2-16-16
		s7.2-16,16-16s16,7.2,16,16S-977.2,45-986,45z"/>
	<path class="st0" d="M-770,213h-32c-8.8,0-16-7.2-16-16v-8c0-8.8,7.2-16,16-16h32c8.8,0,16,7.2,16,16h16c0-17.6-14.4-32-32-32h-8
		v-16h-16v16h-8c-17.6,0-32,14.4-32,32v8c0,17.6,14.4,32,32,32h32c8.8,0,16,7.2,16,16v8c0,8.8-7.2,16-16,16h-32c-8.8,0-16-7.2-16-16
		h-16c0,17.6,14.4,32,32,32h8v16h16v-16h8c17.6,0,32-14.4,32-32v-8C-738,227.4-752.4,213-770,213z"/>
</g>
<circle class="st2" cx="251" cy="252" r="241"/>
<g transform="translate(1 1)">
	<g>
		<path class="st3" d="M408.6,330.6c-34.7-18.4-61.4-28.7-85.1-32.7l2.4-3.4c1.2-1.2,1.7-2.9,1.2-4.6l-5.4-21.8
			c14.4-20.4,22.9-45.8,22.9-70.1v-23.3h5.8H362c3.5,0,5.8-2.3,5.8-5.8c0-3.5-2.3-5.8-5.8-5.8h-5.8v-5.8c0-45.9-30.3-84.9-75.6-97.7
			v-1.2c0-9.3-7.5-17.4-17.4-17.4h-23.3c-9.3,0-17.4,7.5-17.4,17.4v1.2c-45.3,12.8-75.6,51.7-75.6,97.7v5.8h-5.8
			c-3.5,0-5.8,2.3-5.8,5.8c0,3.5,2.3,5.8,5.8,5.8h11.6h5.8V198c0,24.3,8.5,49.7,22.9,70.1l-5.4,21.8c0,1.2,0,3.5,1.2,4.6l2.4,3.4
			c-23.7,4-50.4,14.3-85.1,32.7c-11,5.2-17.4,16.2-17.4,28.5v25c0,3.5,2.3,5.8,5.8,5.8h139.6h2.3h53.6h2.3h139.5
			c3.5,0,5.8-2.3,5.8-5.8v-25C426,347.6,419,336.4,408.6,330.6z M248,325.3l3.5-7.9l8.7,19.1l5.7,12.8h-28.3L248,325.3z
			 M233.1,360.9h36.7l3.3,17.4h-43.5L233.1,360.9z M312.6,279.5l2.3,10.4l-5.9,8.1c-0.4,0.3-0.8,0.7-1.1,1.2l-24.2,33.5l-7.6,10.5
			L260.5,308c18.8-2.3,35.5-11.7,49-25.2c0.2-0.2,0.3-0.3,0.5-0.5l0.1-0.1C310.9,281.3,311.7,280.5,312.6,279.5z M305,83.5
			c0.7,0.4,1.3,0.9,1.9,1.4c7.4,5.5,14.2,12,19.6,18.9l-26.8,5.2L305,83.5z M203.3,109.1l-26.8-5.2c5.3-7,12.2-13.4,19.6-18.9
			c0.7-0.5,1.3-0.9,1.9-1.4L203.3,109.1z M158.4,157.3c0-15.5,3.9-30.1,10.9-42.8l40.2,7.9c0.6,0,0.6,0,1.2,0c1.7,0,2.9-0.6,4.6-1.2
			c1.7-1.2,2.3-3.5,1.7-5.2l-8-38.9c4.3-2,8.6-3.8,13.2-5.2v15.6c0,3.5,2.3,5.8,5.8,5.8c3.5,0,5.8-2.3,5.8-5.8V64.3v-5.8
			c0-2.9,2.3-5.8,5.8-5.8H263c2.9,0,5.8,2.3,5.8,5.8v5.8v23.3c0,3.5,2.3,5.8,5.8,5.8s5.8-2.3,5.8-5.8V71.9c4.7,1.5,9.3,3.3,13.6,5.4
			l-7.8,38.1c0,1.7,0.6,4.1,1.7,5.2s2.3,1.7,4.1,1.7c0.6,0,0.6,0,1.2,0l40-8.4c7.3,12.9,11.2,27.6,11.2,43.3v5.8h-5.8H164.3h-5.8
			L158.4,157.3L158.4,157.3z M170.1,174.8H333v23.3c0,25.3-8.7,47.9-21.8,65.1l-0.4,0.1c-0.6,0.6-1.2,1.2-1.7,1.7
			c-2.9,3.9-6,7.4-9.3,10.6c-13.7,12.8-30.1,20.5-45.7,21.3c-0.8-0.4-1.6-0.5-2.6-0.5c-0.9,0-1.7,0.2-2.4,0.5
			c-9.7-0.5-19.5-3.5-28.8-8.7c-9.5-5.4-18.4-13.2-26.3-23.2c-0.6-0.6-1.2-1.2-1.7-1.7l-0.4-0.1c-13.1-17.1-21.8-39.6-21.8-65.1
			V174.8L170.1,174.8z M242.6,308l-15.7,35.3l-7.6-10.5l-24.2-33.5c-0.2-0.2-0.4-0.4-0.6-0.6l-6.4-8.8l2.3-10.4
			c0.8,0.9,1.5,1.6,2.4,2.5C206.5,295.9,223.5,305.7,242.6,308z M88.6,359.2c0-7.5,4.1-14.5,11-18.1c37.1-19.7,63.8-29.6,87.6-32.6
			l34.7,47.8l-4.4,22H88.6V359.2z M414.4,378.4h-129l-4.4-22l35.1-48.2c23.7,3.6,50.9,13.4,87.2,32.5c7,4.1,11,11,11,18.7
			L414.4,378.4L414.4,378.4z"/>
	</g>
</g>
</svg>
