<?xml version="1.0" encoding="utf-8"?>
<!-- Generator: Adobe Illustrator 22.0.0, SVG Export Plug-In . SVG Version: 6.00 Build 0)  -->
<svg version="1.1" id="Capa_1" xmlns="http://www.w3.org/2000/svg" xmlns:xlink="http://www.w3.org/1999/xlink" x="0px" y="0px"
	 viewBox="0 0 500 500" style="enable-background:new 0 0 500 500;" xml:space="preserve">
<style type="text/css">
	.st0{fill:none;stroke:#FF2215;stroke-width:10;stroke-miterlimit:10;}
	.st1{fill:#FF2215;}
	.st2{fill:#595959;}
</style>
<circle class="st0" cx="251" cy="252" r="241"/>
<g>
	<g>
		<path class="st1" d="M458.9,185l-80.3-80.3c-2.6-2.6-6.8-2.6-9.3,0l-40.1,40.1c-1.2,1.2-1.9,2.9-1.9,4.7s0.7,3.4,1.9,4.7l4,4
			l-9.2,9.2c-6,6-15.2,7.6-23.1,4.1c-7.3-3.3-15.5-5.1-23.6-5.1c-9.6,0-19,2.4-27.3,7c-3.5-0.9-7-1.3-10.7-1.3
			c-5.2,0-10.3,0.9-15.2,2.7c-7.8,2.8-16.2,1.1-21.8-4.6l-16.5-16.5l2-2c1.2-1.2,1.9-2.9,1.9-4.7s-0.7-3.4-1.9-4.7l-40.1-40.1
			c-2.6-2.6-6.8-2.6-9.3,0l-89.3,89.3c-2.6,2.6-2.6,6.8,0,9.3L89.1,241c1.2,1.2,2.9,1.9,4.7,1.9c1.8,0,3.4-0.7,4.7-1.9l2.4-2.4
			l11.7,11.7c2.9,2.9,4.9,6.6,5.6,10.6c3.9,20.8,13.8,39.6,28.7,54.6l2.2,2.2c-4.2,4.4-6.5,10.2-6.5,16.4c0,6.4,2.5,12.3,7,16.8
			c4.6,4.6,10.7,7,16.8,7c0.4,0,0.8,0,1.2,0c-0.3,6.5,2,13.1,6.9,18c4.5,4.5,10.5,7,16.8,7c0.2,0,0.4,0,0.5,0
			c-0.1,6.3,2.2,12.6,6.9,17.3c4.5,4.5,10.5,7,16.8,7c6.4,0,12.3-2.5,16.8-7c0.4-0.4,0.7-0.8,1.1-1.2c2.3,0.8,4.8,1.2,7.3,1.2
			c5.9,0,11.5-2.3,15.7-6.5c2.2-2.2,3.9-4.8,5-7.7l0.7,0.7c4.3,4.3,10,6.5,15.7,6.5c5.7,0,11.4-2.2,15.7-6.5c2.3-2.3,4-5,5.1-8
			c3.9,2.8,8.5,4.2,13.1,4.2c5.7,0,11.4-2.2,15.7-6.5c4.2-4.2,6.5-9.8,6.5-15.7c0-1.8-0.2-3.6-0.6-5.3c4.2-0.9,8.1-2.9,11.2-6.1
			c4.2-4.2,6.5-9.8,6.5-15.7c0-4.7-1.4-9.1-4.1-12.9l5.3-5.3c15.1-15.1,25.1-34.2,28.9-55.3c0.6-3.5,2.4-6.8,5-9.5l19.7-19.7
			l3.5,3.5c1.3,1.3,3,1.9,4.7,1.9c1.7,0,3.4-0.6,4.7-1.9l40.1-40.1c1.2-1.2,1.9-2.9,1.9-4.7C460.8,187.9,460.1,186.2,458.9,185z
			 M93.7,227L63,196.2l80-80l30.8,30.8L93.7,227z M173.8,341.5c-4.1,4.1-10.8,4.1-14.9,0c-2-2-3.1-4.7-3.1-7.5
			c0-2.8,1.1-5.5,3.1-7.5c2.1-2.1,4.8-3.1,7.5-3.1c2.7,0,5.4,1,7.5,3.1C177.9,330.6,177.9,337.3,173.8,341.5z M198.7,366.4
			c-2,2-4.6,3.1-7.5,3.1c-2.8,0-5.5-1.1-7.5-3.1c-4.1-4.1-4.1-10.8,0-14.9c2.1-2.1,4.8-3.1,7.5-3.1c2.7,0,5.4,1,7.5,3.1
			C202.8,355.6,202.8,362.3,198.7,366.4z M223,390.7c-2,2-4.6,3.1-7.5,3.1c-2.8,0-5.5-1.1-7.5-3.1c-4.1-4.1-4.1-10.8,0-14.9
			c2.1-2.1,4.8-3.1,7.5-3.1c2.7,0,5.4,1,7.5,3.1C227.1,379.9,227.1,386.6,223,390.7z M335.2,340c-1.7,1.7-4,2.6-6.4,2.6
			c-2.4,0-4.7-0.9-6.4-2.6l-64.1-64.1c-2.6-2.6-6.8-2.6-9.3,0c-2.6,2.6-2.6,6.8,0,9.3l69.1,69.1c1.7,1.7,2.6,4,2.6,6.4
			c0,2.4-0.9,4.7-2.6,6.4c-3.5,3.5-9.2,3.5-12.7,0l-11.7-11.7c-0.1-0.1-0.1-0.1-0.2-0.2c0,0,0,0-0.1-0.1l-53.6-53.6
			c-2.6-2.6-6.8-2.6-9.3,0s-2.6,6.8,0,9.3l53.7,53.7c1.6,1.7,2.5,3.9,2.5,6.3c0,2.4-0.9,4.7-2.6,6.4c-3.5,3.5-9.2,3.5-12.7,0
			L213.2,319c-2.6-2.6-6.8-2.6-9.3,0c-2.6,2.6-2.6,6.8,0,9.3l43.2,43.2c0,0,0,0,0,0c1.7,1.7,2.6,4,2.6,6.4c0,2.4-0.9,4.7-2.6,6.4
			c-1.7,1.7-4,2.6-6.4,2.6c-0.6,0-1.1-0.1-1.7-0.2c1.1-7.2-1.2-14.8-6.7-20.3c-4.5-4.5-10.5-7-16.8-7c-0.2,0-0.4,0-0.5,0
			c0.1-6.3-2.2-12.6-6.9-17.3c-4.5-4.5-10.5-7-16.8-7c-0.4,0-0.8,0-1.2,0c0.3-6.5-2-13.1-6.9-18c-6-6-14.5-8.1-22.2-6.3l-4.7-4.7
			c-13-13.1-21.7-29.5-25.1-47.7c-1.2-6.6-4.4-12.7-9.3-17.5l-11.7-11.7l66.3-66.3l16.5,16.5c6.3,6.3,15,9.7,23.8,9.7
			c4,0,8-0.7,11.8-2.1c1.9-0.7,3.8-1.2,5.8-1.5l-40.9,40.9c-5,5-7.8,11.7-7.8,18.7c0,7.1,2.8,13.7,7.8,18.7c5.2,5.2,12,7.8,18.7,7.8
			c6.8,0,13.6-2.6,18.7-7.8l20.6-20.6l5.6,5.6c0,0,0,0,0,0l0.2,0.2l0.2,0.2c0,0,0,0,0,0l0,0c0.1,0.1,0.1,0.1,0.2,0.2l77.5,77.5
			c1.7,1.7,2.6,4,2.6,6.4C337.9,336,336.9,338.2,335.2,340z M376.9,241.4c-4.6,4.6-7.6,10.3-8.7,16.5c-3.3,18.4-12,35-25.2,48.3
			l-5.1,5.1l-41.8-41.8c0.9,0.1,1.8,0.1,2.7,0.1c4.2,0,8.6-0.7,12.9-2.5c3.4-1.4,5-5.2,3.6-8.6c-1.4-3.4-5.2-5-8.6-3.6
			c-17,7-37.4-12.2-39.7-14.4c0,0-0.1-0.1-0.1-0.1l-0.2-0.2c0,0,0,0,0,0l-0.2-0.2c0,0,0,0,0,0l-5.6-5.6l6.3-6.3
			c2.6-2.6,2.6-6.8,0-9.3c-2.6-2.6-6.8-2.6-9.3,0l-11,11c0,0,0,0,0,0s0,0,0,0l-25.2,25.2c-5.2,5.2-13.6,5.2-18.8,0
			c-2.5-2.5-3.9-5.8-3.9-9.4s1.4-6.9,3.9-9.4l43.5-43.5c2.4-2.4,5.1-4.6,8-6.3c6.9-4.2,14.8-6.5,23-6.5c6.2,0,12.5,1.3,18.1,3.9
			c12.8,5.8,28,3.1,37.9-6.7l9.2-9.2l54.1,54.1L376.9,241.4z M414.1,220.4l-70.9-70.9l30.8-30.8l70.9,70.9L414.1,220.4z"/>
	</g>
</g>
<g>
	<g>
		<circle class="st2" cx="420.7" cy="194.7" r="6.6"/>
	</g>
</g>
<g>
	<g>
		<circle class="st2" cx="90.3" cy="201.2" r="6.6"/>
	</g>
</g>
</svg>
