<?xml version="1.0" encoding="utf-8"?>
<!-- Generator: Adobe Illustrator 22.0.0, SVG Export Plug-In . SVG Version: 6.00 Build 0)  -->
<svg version="1.1" id="Capa_1" xmlns="http://www.w3.org/2000/svg" xmlns:xlink="http://www.w3.org/1999/xlink" x="0px" y="0px"
	 viewBox="0 0 250 100" style="enable-background:new 0 0 250 100;" xml:space="preserve">
<style type="text/css">
	.st0{fill:#FF2215;}
	.st1{fill:#3A3A3A;}
</style>
<g>
	<g>
		<g>
			<g>
				<path class="st0" d="M45.7,64.9c0.8,0.1,1.8,0.1,2.6,0.1c2.4,0,4.3-0.9,4.3-4.6V24.1H60v35.8c0,9.5-5.1,12-10.7,12
					c-1.4,0-2.4,0-3.6-0.1V64.9z"/>
				<path class="st0" d="M72.3,24.1v36.7c0,3.4,1.5,4.6,3.9,4.6s3.9-1.2,3.9-4.6V24.1h7.1v36.2c0,7.6-3.8,12-11.1,12
					c-7.3,0-11.1-4.4-11.1-12V24.1L72.3,24.1L72.3,24.1z"/>
				<path class="st0" d="M103.4,62.9h0.1l5.6-38.8h6.9l-7.3,47.6H97.5l-7.3-47.6h7.5L103.4,62.9z"/>
				<path class="st0" d="M127,44.1h10.3v6.8H127v13.9h12.9v6.8h-20.4V24.1h20.4v6.8H127V44.1z"/>
				<path class="st0" d="M151.3,37.2h-0.1v34.5h-6.7V24.1h9.4l7.5,28.5h0.1V24.1h6.7v47.6h-7.7L151.3,37.2z"/>
				<path class="st0" d="M171.4,24.1h23.1v6.8h-7.8v40.8h-7.5V30.9h-7.8L171.4,24.1L171.4,24.1z"/>
				<path class="st0" d="M204.9,24.1v36.7c0,3.4,1.5,4.6,3.9,4.6c2.4,0,3.9-1.2,3.9-4.6V24.1h7.1v36.2c0,7.6-3.8,12-11.1,12
					s-11.1-4.4-11.1-12V24.1L204.9,24.1L204.9,24.1z"/>
				<path class="st0" d="M224.8,24.1h11.8c7.5,0,11.1,4.1,11.1,11.8v24.1c0,7.6-3.7,11.8-11.1,11.8h-11.8V24.1z M232.3,30.9v34h4.2
					c2.4,0,3.8-1.2,3.8-4.6V35.5c0-3.4-1.4-4.6-3.8-4.6H232.3z"/>
			</g>
			<g>
				<path class="st1" d="M58.3,91.8c-0.6,0.3-1.9,0.6-3.5,0.6c-3.7,0-6.5-2.4-6.5-6.7c0-4.2,2.8-6.9,6.9-6.9c1.6,0,2.7,0.4,3.1,0.6
					l-0.4,1.4c-0.6-0.3-1.5-0.5-2.6-0.5c-3.1,0-5.2,2-5.2,5.4c0,3.3,1.9,5.3,5.1,5.3c1.1,0,2.1-0.2,2.8-0.5L58.3,91.8z"/>
				<path class="st1" d="M70.6,92.5c-3.5,0-5.9-2.7-5.9-6.7c0-4.2,2.6-6.9,6.1-6.9c3.6,0,6,2.8,6,6.7C76.8,90,74,92.5,70.6,92.5
					L70.6,92.5L70.6,92.5z M70.7,91.1c2.7,0,4.2-2.5,4.2-5.5c0-2.6-1.4-5.4-4.2-5.4c-2.8,0-4.2,2.6-4.2,5.5
					C66.5,88.5,68,91.1,70.7,91.1L70.7,91.1L70.7,91.1z"/>
				<path class="st1" d="M84.5,92.3V79h1.9l4.2,6.7c1,1.5,1.7,2.9,2.4,4.3l0.1,0c-0.2-1.8-0.2-3.4-0.2-5.4V79h1.6v13.2h-1.7
					l-4.2-6.7c-0.9-1.5-1.8-3-2.4-4.4l-0.1,0c0.1,1.7,0.1,3.3,0.1,5.4v5.6L84.5,92.3L84.5,92.3z"/>
				<path class="st1" d="M102.8,90.2c0.8,0.5,1.9,0.9,3,0.9c1.7,0,2.8-0.9,2.8-2.3c0-1.2-0.7-1.9-2.5-2.6c-2.2-0.8-3.5-1.9-3.5-3.8
					c0-2.1,1.7-3.6,4.3-3.6c1.3,0,2.3,0.3,2.9,0.6l-0.5,1.4c-0.4-0.3-1.3-0.6-2.5-0.6c-1.8,0-2.5,1.1-2.5,2c0,1.2,0.8,1.8,2.6,2.5
					c2.2,0.9,3.3,1.9,3.3,3.9c0,2-1.5,3.8-4.6,3.8c-1.3,0-2.7-0.4-3.4-0.9L102.8,90.2z"/>
				<path class="st1" d="M120.7,80.5h-4V79h9.8v1.5h-4v11.8h-1.7V80.5z"/>
				<path class="st1" d="M133.5,79.2c0.9-0.2,2.1-0.3,3.3-0.3c1.8,0,3,0.4,3.8,1.1c0.6,0.6,1,1.5,1,2.5c0,1.7-1.1,2.9-2.5,3.3V86
					c1,0.4,1.6,1.3,1.9,2.7c0.4,1.8,0.7,3.1,1,3.6h-1.8c-0.2-0.4-0.5-1.5-0.9-3.2c-0.4-1.8-1.1-2.5-2.7-2.6h-1.6v5.7h-1.7
					L133.5,79.2L133.5,79.2z M135.2,85.2h1.7c1.8,0,3-1,3-2.5c0-1.7-1.2-2.4-3-2.4c-0.8,0-1.4,0.1-1.7,0.2V85.2z"/>
				<path class="st1" d="M151.2,79v7.8c0,2.9,1.3,4.2,3.1,4.2c1.9,0,3.2-1.3,3.2-4.2V79h1.7v7.7c0,4.1-2.1,5.7-5,5.7
					c-2.7,0-4.7-1.5-4.7-5.6V79L151.2,79L151.2,79z"/>
				<path class="st1" d="M176.9,91.8c-0.6,0.3-1.9,0.6-3.5,0.6c-3.7,0-6.5-2.4-6.5-6.7c0-4.2,2.8-6.9,6.9-6.9c1.6,0,2.7,0.4,3.1,0.6
					l-0.4,1.4c-0.6-0.3-1.5-0.5-2.6-0.5c-3.1,0-5.2,2-5.2,5.4c0,3.3,1.9,5.3,5.1,5.3c1.1,0,2.1-0.2,2.8-0.5L176.9,91.8z"/>
				<path class="st1" d="M187.1,80.5h-4V79h9.8v1.5h-4v11.8h-1.7L187.1,80.5L187.1,80.5z"/>
				<path class="st1" d="M204.5,92.5c-3.5,0-5.9-2.7-5.9-6.7c0-4.2,2.6-6.9,6.1-6.9c3.6,0,6,2.8,6,6.7
					C210.7,90,207.9,92.5,204.5,92.5L204.5,92.5L204.5,92.5z M204.6,91.1c2.7,0,4.2-2.5,4.2-5.5c0-2.6-1.4-5.4-4.2-5.4
					c-2.8,0-4.2,2.6-4.2,5.5C200.4,88.5,201.9,91.1,204.6,91.1L204.6,91.1L204.6,91.1z"/>
				<path class="st1" d="M218.4,79.2c0.9-0.2,2.1-0.3,3.3-0.3c1.8,0,3,0.4,3.8,1.1c0.6,0.6,1,1.5,1,2.5c0,1.7-1.1,2.9-2.5,3.3V86
					c1,0.4,1.6,1.3,1.9,2.7c0.4,1.8,0.7,3.1,1,3.6h-1.8c-0.2-0.4-0.5-1.5-0.9-3.2c-0.4-1.8-1.1-2.5-2.7-2.6h-1.6v5.7h-1.7
					L218.4,79.2L218.4,79.2z M220.1,85.2h1.7c1.8,0,3-1,3-2.5c0-1.7-1.2-2.4-3-2.4c-0.8,0-1.4,0.1-1.7,0.2L220.1,85.2L220.1,85.2z"
					/>
				<path class="st1" d="M236.8,88.1l-1.4,4.2h-1.8l4.5-13.2h2.1l4.5,13.2h-1.8l-1.4-4.2H236.8z M241.1,86.8l-1.3-3.8
					c-0.3-0.9-0.5-1.6-0.7-2.4H239c-0.2,0.8-0.4,1.6-0.6,2.4l-1.3,3.8L241.1,86.8L241.1,86.8z"/>
			</g>
		</g>
	</g>
	<polygon class="st1" points="28.1,14 28.1,94 41.9,94 41.9,4.5 	"/>
	<polygon class="st0" points="15.3,23.7 15.3,94 26.4,94 26.4,15.4 	"/>
	<polygon class="st0" points="3.7,33.5 3.7,94 13.3,94 13.3,26.4 	"/>
</g>
</svg>
