<?xml version="1.0" encoding="utf-8"?>
<!-- Generator: Adobe Illustrator 16.0.0, SVG Export Plug-In . SVG Version: 6.00 Build 0)  -->
<!DOCTYPE svg PUBLIC "-//W3C//DTD SVG 1.1//EN" "http://www.w3.org/Graphics/SVG/1.1/DTD/svg11.dtd">
<svg version="1.1" id="Capa_1" xmlns="http://www.w3.org/2000/svg" xmlns:xlink="http://www.w3.org/1999/xlink" x="0px" y="0px"
	 width="1440px" height="650px" viewBox="0 0 1440 650" enable-background="new 0 0 1440 650" xml:space="preserve">
<rect fill="#DB271C" width="1440" height="650"/>
<g opacity="0.3">
	<polygon fill="none" stroke="#FFFFFF" stroke-miterlimit="10" points="55.457,59.902 171.995,100.771 179.081,80.564 
		48.818,34.883 	"/>
	<polygon fill="none" stroke="#FFFFFF" stroke-miterlimit="10" points="63.079,83.465 165.471,119.373 171.148,103.186 
		56.699,63.051 	"/>
	<polygon fill="none" stroke="#FFFFFF" stroke-miterlimit="10" points="71.494,105.334 159.564,136.219 164.446,122.296 
		66.004,87.774 	"/>
</g>
<g opacity="0.3">
	<polygon fill="none" stroke="#FFFFFF" stroke-miterlimit="10" points="348.964,148.995 308.538,221.487 321.107,228.497 
		366.294,147.467 	"/>
	<polygon fill="none" stroke="#FFFFFF" stroke-miterlimit="10" points="332.486,151.341 296.966,215.034 307.035,220.649 
		346.737,149.456 	"/>
	<polygon fill="none" stroke="#FFFFFF" stroke-miterlimit="10" points="317.038,154.406 286.487,209.19 295.147,214.02 
		329.297,152.784 	"/>
</g>
<g opacity="0.3">
	<polygon fill="none" stroke="#FFFFFF" stroke-miterlimit="10" points="433.921,165.314 433.921,299.979 457.27,299.979 
		457.27,149.456 	"/>
	<polygon fill="none" stroke="#FFFFFF" stroke-miterlimit="10" points="412.425,181.66 412.425,299.979 431.129,299.979 
		431.129,167.729 	"/>
	<polygon fill="none" stroke="#FFFFFF" stroke-miterlimit="10" points="392.958,198.21 392.958,299.979 409.047,299.979 
		409.047,186.225 	"/>
</g>
<g opacity="0.3">
	<polygon fill="none" stroke="#FFFFFF" stroke-miterlimit="10" points="415.819,353.963 467.498,465.492 487.838,456.067 
		430.072,331.402 	"/>
	<polygon fill="none" stroke="#FFFFFF" stroke-miterlimit="10" points="403.366,376.177 448.773,474.169 465.066,466.619 
		414.314,357.089 	"/>
	<polygon fill="none" stroke="#FFFFFF" stroke-miterlimit="10" points="392.76,397.741 431.815,482.027 445.83,475.532 
		402.176,381.321 	"/>
</g>
<g opacity="0.3">
	<polygon fill="none" stroke="#FFFFFF" stroke-miterlimit="10" points="557.493,333.645 557.493,416.646 571.885,416.646 
		571.885,323.869 	"/>
	<polygon fill="none" stroke="#FFFFFF" stroke-miterlimit="10" points="544.244,343.719 544.244,416.646 555.772,416.646 
		555.772,335.133 	"/>
	<polygon fill="none" stroke="#FFFFFF" stroke-miterlimit="10" points="532.245,353.92 532.245,416.646 542.162,416.646 
		542.162,346.533 	"/>
</g>
<g opacity="0.3">
	<polygon fill="none" stroke="#FFFFFF" stroke-miterlimit="10" points="577.967,531.536 453.639,552.593 457.291,574.149 
		596.259,550.613 	"/>
	<polygon fill="none" stroke="#FFFFFF" stroke-miterlimit="10" points="559.515,514.246 450.278,532.747 453.203,550.016 
		575.301,529.338 	"/>
	<polygon fill="none" stroke="#FFFFFF" stroke-miterlimit="10" points="541.191,498.861 447.234,514.774 449.75,529.628 
		554.771,511.842 	"/>
</g>
<g opacity="0.3">
	<polygon fill="none" stroke="#FFFFFF" stroke-miterlimit="10" points="656.784,417.067 656.784,526.639 675.782,526.639 
		675.782,404.163 	"/>
	<polygon fill="none" stroke="#FFFFFF" stroke-miterlimit="10" points="639.293,430.366 639.293,526.639 654.512,526.639 
		654.512,419.032 	"/>
	<polygon fill="none" stroke="#FFFFFF" stroke-miterlimit="10" points="623.454,443.833 623.454,526.639 636.544,526.639 
		636.544,434.082 	"/>
</g>
<g opacity="0.3">
	<polygon fill="none" stroke="#FFFFFF" stroke-miterlimit="10" points="770.195,478.693 770.195,561.695 784.587,561.695 
		784.587,468.918 	"/>
	<polygon fill="none" stroke="#FFFFFF" stroke-miterlimit="10" points="756.945,488.768 756.945,561.695 768.475,561.695 
		768.475,480.182 	"/>
	<polygon fill="none" stroke="#FFFFFF" stroke-miterlimit="10" points="744.947,498.969 744.947,561.695 754.863,561.695 
		754.863,491.582 	"/>
</g>
<g opacity="0.3">
	<polygon fill="none" stroke="#FFFFFF" stroke-miterlimit="10" points="668.521,287.256 668.521,370.258 682.913,370.258 
		682.913,277.48 	"/>
	<polygon fill="none" stroke="#FFFFFF" stroke-miterlimit="10" points="655.271,297.33 655.271,370.258 666.801,370.258 
		666.801,288.744 	"/>
	<polygon fill="none" stroke="#FFFFFF" stroke-miterlimit="10" points="643.273,307.531 643.273,370.258 653.189,370.258 
		653.189,300.145 	"/>
</g>
<g opacity="0.3">
	<polygon fill="none" stroke="#FFFFFF" stroke-miterlimit="10" points="688.122,116.149 753.055,167.852 762.019,156.593 
		689.439,98.802 	"/>
	<polygon fill="none" stroke="#FFFFFF" stroke-miterlimit="10" points="687.75,132.791 744.801,178.217 751.982,169.198 
		688.214,118.423 	"/>
	<polygon fill="none" stroke="#FFFFFF" stroke-miterlimit="10" points="688.256,148.531 737.327,187.603 743.504,179.846 
		688.654,136.172 	"/>
</g>
<g opacity="0.3">
	<polygon fill="none" stroke="#FFFFFF" stroke-miterlimit="10" points="806.214,251.878 806.214,389.549 830.084,389.549 
		830.084,235.665 	"/>
	<polygon fill="none" stroke="#FFFFFF" stroke-miterlimit="10" points="784.237,268.588 784.237,389.549 803.359,389.549 
		803.359,254.347 	"/>
	<polygon fill="none" stroke="#FFFFFF" stroke-miterlimit="10" points="764.337,285.508 764.337,389.549 780.783,389.549 
		780.783,273.256 	"/>
</g>
<g opacity="0.3">
	<polygon fill="none" stroke="#FFFFFF" stroke-miterlimit="10" points="889.6,18.897 889.6,167.594 915.382,167.594 915.382,1.384 	
		"/>
	<polygon fill="none" stroke="#FFFFFF" stroke-miterlimit="10" points="865.862,36.945 865.862,167.594 886.517,167.594 
		886.517,21.563 	"/>
	<polygon fill="none" stroke="#FFFFFF" stroke-miterlimit="10" points="844.367,55.22 844.367,167.594 862.132,167.594 
		862.132,41.987 	"/>
</g>
<g opacity="0.3">
	<polygon fill="none" stroke="#FFFFFF" stroke-miterlimit="10" points="1009.709,223.962 974.761,299.248 987.814,305.308 
		1026.879,221.155 	"/>
	<polygon fill="none" stroke="#FFFFFF" stroke-miterlimit="10" points="993.449,227.521 962.743,293.669 973.2,298.523 
		1007.521,224.587 	"/>
	<polygon fill="none" stroke="#FFFFFF" stroke-miterlimit="10" points="978.271,231.722 951.86,288.617 960.854,292.792 
		990.376,229.197 	"/>
</g>
<g opacity="0.3">
	<polygon fill="none" stroke="#FFFFFF" stroke-miterlimit="10" points="849.911,365.055 931.981,377.451 934.131,363.221 
		842.395,349.364 	"/>
	<polygon fill="none" stroke="#FFFFFF" stroke-miterlimit="10" points="857.894,379.66 930.003,390.553 931.725,379.152 
		851.125,366.979 	"/>
	<polygon fill="none" stroke="#FFFFFF" stroke-miterlimit="10" points="866.188,393.048 928.211,402.416 929.691,392.611 
		860.365,382.14 	"/>
</g>
<g opacity="0.3">
	<polygon fill="none" stroke="#FFFFFF" stroke-miterlimit="10" points="1001.557,502.35 936.671,554.109 945.646,565.36 
		1018.174,507.504 	"/>
	<polygon fill="none" stroke="#FFFFFF" stroke-miterlimit="10" points="985.419,498.273 928.408,543.752 935.598,552.765 
		999.32,501.933 	"/>
	<polygon fill="none" stroke="#FFFFFF" stroke-miterlimit="10" points="969.962,495.256 920.926,534.372 927.109,542.124 
		981.921,498.401 	"/>
</g>
<g opacity="0.3">
	<polygon fill="none" stroke="#FFFFFF" stroke-miterlimit="10" points="866.327,192.813 866.327,258.712 878.105,258.712 
		878.105,185.052 	"/>
	<polygon fill="none" stroke="#FFFFFF" stroke-miterlimit="10" points="855.482,200.812 855.482,258.712 864.919,258.712 
		864.919,193.995 	"/>
	<polygon fill="none" stroke="#FFFFFF" stroke-miterlimit="10" points="845.662,208.911 845.662,258.712 853.778,258.712 
		853.778,203.046 	"/>
</g>
<g opacity="0.3">
	<polygon fill="none" stroke="#FFFFFF" stroke-miterlimit="10" points="1034.438,71.464 1034.438,154.466 1048.829,154.466 
		1048.829,61.689 	"/>
	<polygon fill="none" stroke="#FFFFFF" stroke-miterlimit="10" points="1021.188,81.539 1021.188,154.466 1032.717,154.466 
		1032.717,72.953 	"/>
	<polygon fill="none" stroke="#FFFFFF" stroke-miterlimit="10" points="1009.189,91.74 1009.189,154.466 1019.105,154.466 
		1019.105,84.353 	"/>
</g>
<g opacity="0.3">
	<polygon fill="none" stroke="#FFFFFF" stroke-miterlimit="10" points="1102.17,135.95 1188.35,309.075 1218.368,294.133 
		1122.04,100.618 	"/>
	<polygon fill="none" stroke="#FFFFFF" stroke-miterlimit="10" points="1084.993,170.72 1160.714,322.833 1184.76,310.862 
		1100.126,140.841 	"/>
	<polygon fill="none" stroke="#FFFFFF" stroke-miterlimit="10" points="1070.561,204.455 1135.688,335.29 1156.37,324.995 
		1083.573,178.752 	"/>
</g>
<g opacity="0.3">
	<polygon fill="none" stroke="#FFFFFF" stroke-miterlimit="10" points="1169.876,384.547 1221.308,449.693 1232.604,440.776 
		1175.115,367.956 	"/>
	<polygon fill="none" stroke="#FFFFFF" stroke-miterlimit="10" points="1165.719,400.664 1210.907,457.904 1219.957,450.76 
		1169.447,386.781 	"/>
	<polygon fill="none" stroke="#FFFFFF" stroke-miterlimit="10" points="1162.623,416.105 1201.49,465.339 1209.273,459.194 
		1165.828,404.163 	"/>
</g>
<g opacity="0.3">
	<polygon fill="none" stroke="#FFFFFF" stroke-miterlimit="10" points="1332.168,504.731 1332.168,587.733 1346.56,587.733 
		1346.56,494.956 	"/>
	<polygon fill="none" stroke="#FFFFFF" stroke-miterlimit="10" points="1318.918,514.806 1318.918,587.733 1330.447,587.733 
		1330.447,506.22 	"/>
	<polygon fill="none" stroke="#FFFFFF" stroke-miterlimit="10" points="1306.92,525.007 1306.92,587.733 1316.836,587.733 
		1316.836,517.62 	"/>
</g>
<g opacity="0.3">
	<polygon fill="none" stroke="#FFFFFF" stroke-miterlimit="10" points="1132.234,490.026 1132.234,573.028 1146.626,573.028 
		1146.626,480.251 	"/>
	<polygon fill="none" stroke="#FFFFFF" stroke-miterlimit="10" points="1118.984,500.101 1118.984,573.028 1130.514,573.028 
		1130.514,491.515 	"/>
	<polygon fill="none" stroke="#FFFFFF" stroke-miterlimit="10" points="1106.986,510.302 1106.986,573.028 1116.902,573.028 
		1116.902,502.915 	"/>
</g>
<g opacity="0.3">
	<polygon fill="none" stroke="#FFFFFF" stroke-miterlimit="10" points="1074.077,288.387 1074.077,371.389 1088.469,371.389 
		1088.469,278.612 	"/>
	<polygon fill="none" stroke="#FFFFFF" stroke-miterlimit="10" points="1060.827,298.461 1060.827,371.389 1072.356,371.389 
		1072.356,289.875 	"/>
	<polygon fill="none" stroke="#FFFFFF" stroke-miterlimit="10" points="1048.829,308.663 1048.829,371.389 1058.745,371.389 
		1058.745,301.276 	"/>
</g>
<g opacity="0.3">
	<polygon fill="none" stroke="#FFFFFF" stroke-miterlimit="10" points="1163.085,35.436 1225.58,111.305 1234.946,103.59 
		1165.091,18.786 	"/>
	<polygon fill="none" stroke="#FFFFFF" stroke-miterlimit="10" points="1162.048,51.747 1216.958,118.407 1224.46,112.228 
		1163.087,37.718 	"/>
	<polygon fill="none" stroke="#FFFFFF" stroke-miterlimit="10" points="1161.922,67.503 1209.15,124.839 1215.604,119.524 
		1162.813,55.436 	"/>
</g>
<g opacity="0.3">
	<polygon fill="none" stroke="#FFFFFF" stroke-miterlimit="10" points="1334.612,87.213 1304.697,164.636 1318.121,169.823 
		1351.561,83.282 	"/>
	<polygon fill="none" stroke="#FFFFFF" stroke-miterlimit="10" points="1318.622,91.835 1292.337,159.86 1303.092,164.016 
		1332.471,87.981 	"/>
	<polygon fill="none" stroke="#FFFFFF" stroke-miterlimit="10" points="1303.754,97.026 1281.146,155.536 1290.396,159.11 
		1315.666,93.709 	"/>
</g>
<g opacity="0.3">
	<polygon fill="none" stroke="#FFFFFF" stroke-miterlimit="10" points="1258.784,212.504 1258.784,295.506 1273.176,295.506 
		1273.176,202.729 	"/>
	<polygon fill="none" stroke="#FFFFFF" stroke-miterlimit="10" points="1245.534,222.579 1245.534,295.506 1257.063,295.506 
		1257.063,213.993 	"/>
	<polygon fill="none" stroke="#FFFFFF" stroke-miterlimit="10" points="1233.536,232.78 1233.536,295.506 1243.452,295.506 
		1243.452,225.393 	"/>
</g>
<g opacity="0.3">
	<polygon fill="none" stroke="#FFFFFF" stroke-miterlimit="10" points="1341.655,229.844 1388.076,298.65 1400.007,290.602 
		1348.118,213.692 	"/>
	<polygon fill="none" stroke="#FFFFFF" stroke-miterlimit="10" points="1336.306,245.606 1377.093,306.062 1386.65,299.613 
		1341.061,232.041 	"/>
	<polygon fill="none" stroke="#FFFFFF" stroke-miterlimit="10" points="1332.064,260.773 1367.146,312.771 1375.367,307.226 
		1336.153,249.104 	"/>
</g>
<g opacity="0.3">
	<polygon fill="none" stroke="#FFFFFF" stroke-miterlimit="10" points="1289.779,339.242 1355.877,437.213 1372.864,425.753 
		1298.981,316.243 	"/>
	<polygon fill="none" stroke="#FFFFFF" stroke-miterlimit="10" points="1282.162,361.685 1340.237,447.766 1353.847,438.584 
		1288.933,342.368 	"/>
	<polygon fill="none" stroke="#FFFFFF" stroke-miterlimit="10" points="1276.123,383.279 1326.075,457.32 1337.78,449.423 
		1281.945,366.666 	"/>
</g>
<g opacity="0.3">
	<polygon fill="none" stroke="#FFFFFF" stroke-miterlimit="10" points="297.137,499.1 297.137,582.102 311.529,582.102 
		311.529,489.324 	"/>
	<polygon fill="none" stroke="#FFFFFF" stroke-miterlimit="10" points="283.888,509.174 283.888,582.102 295.417,582.102 
		295.417,500.588 	"/>
	<polygon fill="none" stroke="#FFFFFF" stroke-miterlimit="10" points="271.889,519.375 271.889,582.102 281.806,582.102 
		281.806,511.988 	"/>
</g>
<g opacity="0.3">
	<polygon fill="none" stroke="#FFFFFF" stroke-miterlimit="10" points="70.208,530.004 123.046,594.015 134.145,584.854 
		75.083,513.304 	"/>
	<polygon fill="none" stroke="#FFFFFF" stroke-miterlimit="10" points="66.403,546.207 112.828,602.449 121.719,595.11 
		69.828,532.247 	"/>
	<polygon fill="none" stroke="#FFFFFF" stroke-miterlimit="10" points="63.644,561.713 103.575,610.088 111.223,603.774 
		66.589,549.703 	"/>
</g>
<g opacity="0.3">
	<polygon fill="none" stroke="#FFFFFF" stroke-miterlimit="10" points="60.077,206.873 60.077,289.875 74.468,289.875 
		74.468,197.097 	"/>
	<polygon fill="none" stroke="#FFFFFF" stroke-miterlimit="10" points="46.827,216.947 46.827,289.875 58.356,289.875 
		58.356,208.361 	"/>
	<polygon fill="none" stroke="#FFFFFF" stroke-miterlimit="10" points="34.829,227.148 34.829,289.875 44.745,289.875 
		44.745,219.761 	"/>
</g>
<g opacity="0.3">
	<polygon fill="none" stroke="#FFFFFF" stroke-miterlimit="10" points="613.73,59.663 560.997,123.761 572.11,132.904 
		631.054,61.257 	"/>
	<polygon fill="none" stroke="#FFFFFF" stroke-miterlimit="10" points="597.098,59.025 550.765,115.343 559.668,122.668 
		611.456,59.719 	"/>
	<polygon fill="none" stroke="#FFFFFF" stroke-miterlimit="10" points="581.351,59.28 541.499,107.72 549.157,114.021 
		593.702,59.876 	"/>
</g>
<g opacity="0.3">
	<polygon fill="none" stroke="#FFFFFF" stroke-miterlimit="10" points="632.881,191.739 520.604,268.771 533.961,288.238 
		659.461,202.134 	"/>
	<polygon fill="none" stroke="#FFFFFF" stroke-miterlimit="10" points="606.958,183.167 508.308,250.848 519.008,266.442 
		629.271,190.792 	"/>
	<polygon fill="none" stroke="#FFFFFF" stroke-miterlimit="10" points="582.023,176.403 497.173,234.618 506.376,248.032 
		601.218,182.962 	"/>
</g>
<g opacity="0.3">
	<polygon fill="none" stroke="#FFFFFF" stroke-miterlimit="10" points="234.06,71.6 234.06,154.603 248.452,154.603 248.452,61.826 
			"/>
	<polygon fill="none" stroke="#FFFFFF" stroke-miterlimit="10" points="220.811,81.675 220.811,154.603 232.339,154.603 
		232.339,73.088 	"/>
	<polygon fill="none" stroke="#FFFFFF" stroke-miterlimit="10" points="208.812,91.876 208.812,154.603 218.729,154.603 
		218.729,84.489 	"/>
</g>
<g opacity="0.3">
	<polygon fill="none" stroke="#FFFFFF" stroke-miterlimit="10" points="316.957,357.369 316.957,440.371 331.349,440.371 
		331.349,347.594 	"/>
	<polygon fill="none" stroke="#FFFFFF" stroke-miterlimit="10" points="303.708,367.443 303.708,440.371 315.236,440.371 
		315.236,358.857 	"/>
	<polygon fill="none" stroke="#FFFFFF" stroke-miterlimit="10" points="291.709,377.645 291.709,440.371 301.625,440.371 
		301.625,370.258 	"/>
</g>
<g opacity="0.3">
	<polygon fill="none" stroke="#FFFFFF" stroke-miterlimit="10" points="149.259,164.377 149.259,247.38 163.651,247.38 
		163.651,154.603 	"/>
	<polygon fill="none" stroke="#FFFFFF" stroke-miterlimit="10" points="136.01,174.453 136.01,247.38 147.539,247.38 
		147.539,165.866 	"/>
	<polygon fill="none" stroke="#FFFFFF" stroke-miterlimit="10" points="124.011,184.654 124.011,247.38 133.928,247.38 
		133.928,177.266 	"/>
</g>
<g opacity="0.3">
	<polygon fill="none" stroke="#FFFFFF" stroke-miterlimit="10" points="243.28,253.059 311.084,300.935 319.385,289.178 
		243.596,235.665 	"/>
	<polygon fill="none" stroke="#FFFFFF" stroke-miterlimit="10" points="243.868,269.693 303.441,311.758 310.091,302.34 
		243.503,255.323 	"/>
	<polygon fill="none" stroke="#FFFFFF" stroke-miterlimit="10" points="245.28,285.379 296.521,321.559 302.241,313.458 
		244.965,273.017 	"/>
</g>
<g opacity="0.3">
	<polygon fill="none" stroke="#FFFFFF" stroke-miterlimit="10" points="149.259,284.945 149.259,367.948 163.651,367.948 
		163.651,275.171 	"/>
	<polygon fill="none" stroke="#FFFFFF" stroke-miterlimit="10" points="136.01,295.021 136.01,367.948 147.539,367.948 
		147.539,286.434 	"/>
	<polygon fill="none" stroke="#FFFFFF" stroke-miterlimit="10" points="124.011,305.222 124.011,367.948 133.928,367.948 
		133.928,297.834 	"/>
</g>
<g opacity="0.3">
	<polygon fill="none" stroke="#FFFFFF" stroke-miterlimit="10" points="69.98,392.495 69.98,475.498 84.372,475.498 84.372,382.721 
			"/>
	<polygon fill="none" stroke="#FFFFFF" stroke-miterlimit="10" points="56.73,402.57 56.73,475.498 68.259,475.498 68.259,393.983 	
		"/>
	<polygon fill="none" stroke="#FFFFFF" stroke-miterlimit="10" points="44.732,412.771 44.732,475.498 54.648,475.498 
		54.648,405.384 	"/>
</g>
<g opacity="0.3">
	<polygon fill="none" stroke="#FFFFFF" stroke-miterlimit="10" points="197.792,379.411 197.792,515.307 221.355,515.307 
		221.355,363.408 	"/>
	<polygon fill="none" stroke="#FFFFFF" stroke-miterlimit="10" points="176.1,395.906 176.1,515.307 194.975,515.307 
		194.975,381.848 	"/>
	<polygon fill="none" stroke="#FFFFFF" stroke-miterlimit="10" points="156.455,412.608 156.455,515.307 172.691,515.307 
		172.691,400.513 	"/>
</g>
<g opacity="0.3">
	<polygon fill="none" stroke="#FFFFFF" stroke-miterlimit="10" points="450.362,47.875 450.362,130.877 464.754,130.877 
		464.754,38.1 	"/>
	<polygon fill="none" stroke="#FFFFFF" stroke-miterlimit="10" points="437.113,57.95 437.113,130.877 448.642,130.877 
		448.642,49.363 	"/>
	<polygon fill="none" stroke="#FFFFFF" stroke-miterlimit="10" points="425.114,68.151 425.114,130.877 435.031,130.877 
		435.031,60.763 	"/>
</g>
</svg>
